<?xml version="1.0" encoding="utf-8"?>
<!-- Generator: Adobe Illustrator 18.0.0, SVG Export Plug-In . SVG Version: 6.00 Build 0)  -->
<!DOCTYPE svg PUBLIC "-//W3C//DTD SVG 1.1//EN" "http://www.w3.org/Graphics/SVG/1.1/DTD/svg11.dtd">
<svg version="1.1" id="Слой_1" xmlns="http://www.w3.org/2000/svg" xmlns:xlink="http://www.w3.org/1999/xlink" x="0px" y="0px"
	 viewBox="0 31.7 768 975.8" enable-background="new 0 31.7 768 975.8" xml:space="preserve">
<path fill="#000000"      d="
	M737.9,364.2c-17.2-30.4-60.5-61.1-115.9-78.5c-38.9-12.2-76.7-15.7-106.6-11.4c-28-0.8-52,3-69,11.4c-7.5-0.1-15.5,0.9-22.3,4.3
	c0,0,1.6-19.4-7-23.1l1.7-17.1c0,0-2.8-3-5.9-7.1v-6.6h3.2c0,0-1.8-14.8-8.3-29.9l120.9-74.3c2.7,1.7,5.8,2,8.2,0.5l36-22.1
	c6.2,3.6,13.9,3.9,20.2,0.1c9.3-5.7,80.5-68.9,81.7-74.3c0,0-94.1,33.2-103.4,38.8c-6.4,3.9-9.6,11.1-9.1,18.3l-35.9,22
	c-2.1,1.3-3.2,3.7-3.3,6.5l-120.6,74c-8-13.2-20.6-24.3-39.7-22.7c0,0-22.1-40.3-18.4-61.1c0,0,9.1-20.1,18.4,0l4,11.2l9.7-3
	c0,0,22.4,0,23.9,12.7c0,0,4.5-8.9-1.5-12.7c0,0,11.2,4.5,6.7,18.6c0,0,7.5-11.9,3.7-23.9l6.7,4.5l-3-9.7l6.3,6.3
	c0,0-1.8-17.6-15.2-22.8h12.1c0,0-24-48.1-41.1-50.3c0,0-15.9,7.2-12.2,4.3c17.6-13.9-25.2-20.3-43.7-11l-0.7,8.6l-3.7-8.7
	c0,0-26.8,14.6-29.1,47.4l6.7,3l-8.2,0.7c0,0-1.5,28.3,8.2,50l6-6.7l-5.2,15.7l1.5,17.1l7.5-11.9l-5.2,19.4c0,0,6.7,19.4,2.2,35.8
	c0,0,4.9-5,6.4-13.2c0,0-1.7,35.4-6.4,65.9l-139.2,85.4c-3.1-1.5-7.1-2.7-10.7-1.6c0,0-10.8-7.8-11.2,3.7c0,0-8.2-5.4-12.7,8.2
	c0,0-6,0-6.7,11.9c0,0-0.9,1.5-1.2,3.8L5.9,439c-2.1,1.3-2.5,4.6-0.9,7.3c1.7,2.7,4.7,3.8,6.9,2.5l109.6-67.2l0,0
	c0,0,7.3,10.9,17.1,16.6c0,0,11.2,11.2,21.6,32.8c0,0,32.8,54.4,54.4,61.9c0,0,11.2,8.9,21.6-6.7c0,0,35-32.1,41.8-44.7
	c0,0,17.9,15.7,25.4,4.5l10.7-16.5c0,0,10.9,48.5,25.4,72.1c0,0-8.6,22.1-17.5,31.8c0,0-3.3,7.4,4.4,8.5
	c-2.2,4.1-46.4,86-32.8,102.1c-3.8,14-7,26.9-8.5,36.9c0,0-21.3,10.1-5.6,59.4c0,0,7.4,69.5,23.7,124.4c0,0-9.1,7.2-0.6,19.4v17.5
	L280.8,923c-2.2,4.5-16.6,11.9-16.6,11.9c-16.4,8.2-13.3,20.5-13.3,20.5v4.1c29.4,15.7,58.6,0,58.6,0c11.4-14.2,21.5-16.4,21.5-16.4
	c8.2,0.7,14.5-5.2,14.5-5.2l1-5.2c9-13.4,0.1-32.1,0.1-32.1c-1.7-8.2-3.3-17-3.3-17c5-14-4.2-18.9-4.2-18.9c-1.7-2.2,5.3-55,5.3-55
	c9.1-37-7.3-87.4-7.3-87.4c-5-16.8,7.3-31.4,7.3-31.4c17-19,35.8-46,35.8-46s5.7,13.4,20.3,0c0,0,9.5,14.6,18.6,0c0,0,7,14.5,20.4,0
	c0,0,42.4,42.5,51.4,92.9c1.7-7.9-9.3,67.8,17.4,121.8c0,0,8.7,29.8,4.7,47c0,0-10.4,10.4,1,17.9c0,0,0.7,8.9-1,17.1
	c0,0-8.9,18.6,0.1,32.1l0.9,5.2c0,0,6.2,6,14.4,5.2c0,0,9.7,2.2,21,16.4c0,0,28.5,15.7,57.9,0v-4.1c0,0,3.6-12.3-12.8-20.5
	c0,0-14-7.5-16.2-11.9l-22-21.6l-2.1-20.9c6.3-9.7-1.2-14.9-1.2-14.9c-0.2-16.4-0.1-52.2-0.1-52.2c3.7-45.5,2.1-89.5,2.1-89.5
	c-2-29.1,0.9-32.7,0.9-32.7c2.2-44.8-20.2-52.7-20.2-52.7c0-13.4-12.3-60.3-12.3-60.3c9,0.2,10.1-7,10.1-7c1.8,2.3,3.3,4.1,4.6,5.5
	c-1,1.2-1.6,2.7-1.6,4.4c0,3.7,3,6.8,6.6,6.8c3.7,0,6.6-3,6.6-6.8c0-3.3-2.3-6-5.4-6.6c-0.3-1.8-0.7-3.3-0.7-3.3
	c-3.4-24.7-54.9-150.2-54.9-150.2c-3.4-25.8-12.3-12.9-12.3-12.9c2.3-11.6,0.5-31.4-1.7-48.2c24.5,17.8,55.9,34.2,91.5,46.7
	c94.9,33.2,183.7,26,198.5-16.2C771.9,411.7,761.1,387.6,737.9,364.2z M310.1,235.6l6,7.1c0,0-3.2-24.3,4.5-57.8
	c0,0,4.5-14.9,8.2-20.1l0.7,13.4l9.9-23.9l7.2,21.6c0,0-36.7,17.5-22.6,67.8l-9.3,5.7L310.1,235.6z M265.3,366.1
	c0,0-13.4,14.9-10.4,16.4c0,0-23.9,30.6-32.1,53.7c0,0-15.7-17.7-47-43.2c0,0-7.5-6.7-6.7-16.4c0,0,1.7-15.6-0.7-23.8l127.8-78.4
	c-2.1,10.4-4.7,19-7.8,23.9l8.2-5.2l-9.7,11.9c0,0-6.7,22.7-8,37.8C274.9,347.6,270.3,355,265.3,366.1z M339.4,307.3
	c0,0-21.1,11.1-33,20.8c0,0-8.9-1.5-11.9,5.2c0,0-0.8-0.2-2.3,0c2.1-6.8,4.8-13.8,7.5-16.5l1.5-9.7l3.7,3.7c0,0,15.3-26.9,12.9-49.8
	l10.1-6.2l0,0c0,0,15.5,17.9,11.5,23.9c0,0-9.2,11.9,8.7,15.7l0,3.4C348.1,297.8,347,305.1,339.4,307.3z"/>
</svg>
